<svg xmlns="http://www.w3.org/2000/svg" width="251" height="71" viewBox="0 0 251 71">
  <g fill="#191919" fill-rule="evenodd">
    <polygon points="0 9 8 9 8 27 17 27 17 9 25 9 25 47 17 47 17 29 8 29 8 47 0 47"/>
    <path d="M30 21C30.2755004 20.6502213 32 17 36 17 40 17 42 20 42 23 42 30.3333333 42 35 42 37 42 40 45 40 47 40 49 40 53 39 53 34 53 32 53 27 53 24 53 21 53 20.0055314 51.8300865 20.0055314 51.0501441 20.0055314 50.1067819 20.6703542 49 22L47 21C49 18.3333333 51 17 53 17 55.2106767 17 56.6799954 17.5494389 58 19 58.5360046 19.7472277 59 21.1088808 59 23 59 37.6666667 59 46.3333333 59 49 59 53 53 60 45 60 36.766628 60 33 57 33 54 33 49 41 48 42 48 42.6666667 48 44 47 46 45L48 47C47.3333333 47.6666667 46.6666667 48.3333333 46 49 44 52 39 51 39 54 39 57 43 57 44 57 45 57 53 56 53 49 53 44.3333333 53 41 53 39 52.9244996 39.1497787 52 43 46 43 43 43 36 41 36 33 36 25 37 20 34 20 33.3333333 20 32.3333333 20.6666667 31 22L30 21zM72 53L72 64 66 64 66 24 79 24C80.8381051 24 82.5238026 24.6952311 84 26 85.3047689 27.4761974 86 29.1618949 86 31L86 45C86 50 82 53 79 53L72 53zM72 30L72 47C76.6666667 47 79 47 79 47 79 47 80 47 80 46 80 40.0828729 80 34.1153278 80 31 80 30.3333333 79.6666667 30 79 30L72 30zM102 32L114 32C117 32 124 36 124 42L124 47 101 47C101 52.3333333 101 55.3333333 101 56 101 57 101 58 102 58 103 58 113 58 114 58 115 58 115 57 115 56 115 55.3333333 115 53 115 49L124 49 124 51C124 55 119 61 114 61L102 61C98 61 92 56 92 51L92 42C92 38 97 32 102 32zM101 43L115 43C115 39 115 36.6666667 115 36 115 35 115 34 113 34L103 34C101 34 101 35 101 36 101 36.6666667 101 39 101 43zM132 22L155 22C160 22 161 26 161 30L161 37 149 37C149 30.3333333 149 26.6666667 149 26 149 25 148 25 147 25 147 27.6666667 147 36.3333333 147 51L150 51 150 54 132 54 132 51 135 51 135 25 132 25 132 22zM167 0L178 0 178 49 181 49 181 52 167 52 167 49 170 49 170 3 167 3 167 0zM172 3L172 49 175 49 175 3 172 3zM191 11L199 11 199 20 191 20 191 11zM202 46L202 49 188 49 188 46 191 46 191 26 188 26 188 23 199 23 199 46 202 46zM210 36L215 36C215 44 215 48.3333333 215 49 215 50 218 50 218 49 218 48 218 38 218 36 218 34.6666667 216.666667 32.6666667 214 30 211.333333 27.3333333 210 25.3333333 210 24 210 22.6666667 210 20 210 16 210 12 213 10 217 10 221 10 224 12 224 16 224 17.3333333 224 19 224 21L219 21C219 17 219 14.6666667 219 14 219 13 216 13 216 14 216 15 216 19 216 21 216 22.3333333 217.333333 24.3333333 220 27 222.666667 29.6666667 224 31.6666667 224 33 224 38.3333333 224 42.6666667 224 46 224 51 220 53 217 53 213 53 210 51 210 46 210 42.6666667 210 39.3333333 210 36zM231 31L237 31 237 20 243 20 243 31 248 31 248 34 243 34C243 55.3333333 243 66.3333333 243 67 243 67.6666667 243.333333 68 244 68L247 68C247.666667 68 248 67.6666667 248 67L248 57 251 57C251 61 251 63.6666667 251 65 251 70 248 71 244 71 240 71 237 69 237 65 237 63.6666667 237 53.3333333 237 34L231 34 231 31zM181.5 67.5L181.5 63 183 63 183 61.5 186 61.5 186 63 187.5 63 187.5 67.5 186 67.5 186 69 183 69 183 67.5 181.5 67.5zM183 63.06L183 67.44 186 67.44 186 63.06 183 63.06zM190.5 69L190.5 61.5 192 61.5 192 63 193.5 63 193.5 64.5 195 64.5 195 66 196.5 66 196.5 61.5 198 61.5 198 69 196.5 69 196.5 67.5 195 67.5 195 66 193.5 66 193.5 64.5 192 64.5 192 69 190.5 69zM201 69L201 61.5 202.5 61.5 202.5 67.5 205.5 67.5 205.5 69 201 69zM208.5 69L208.5 61.5 210 61.5 210 69 208.5 69zM213 69L213 61.5 214.5 61.5 214.5 63 216 63 216 64.5 217.5 64.5 217.5 66 219 66 219 61.5 220.5 61.5 220.5 69 219 69 219 67.5 217.5 67.5 217.5 66 216 66 216 64.5 214.5 64.5 214.5 69 213 69zM223.5 69L223.5 61.5 228 61.5 228 63 225 63 225 64.5 228 64.5 228 66 225 66 225 67.5 228 67.5 228 69 223.5 69z"/>
  </g>
</svg>
